<svg width="50" height="41" viewBox="0 0 50 41" fill="none" xmlns="http://www.w3.org/2000/svg">
<path d="M18.7079 29.692C22.8211 31.5524 27.2635 31.5524 31.3767 29.692C31.3866 29.6874 31.3965 29.6832 31.4065 29.6792L43.0448 25.0305L43.3224 24.4751C43.336 24.4477 43.3496 24.4203 43.3629 24.3928H6.72168C6.73509 24.4203 6.74861 24.4478 6.76225 24.4751L7.03984 25.0305L18.6781 29.6792C18.6881 29.6832 18.698 29.6875 18.7079 29.692Z" fill="#003B5B"/>
<path d="M17.5303 3.83679L15.8611 4.46402V7.90208L17.5303 7.25504V3.83679Z" fill="#003B5B"/>
<path d="M14.1917 5.09122L12.5225 5.71859V9.19617L14.1917 8.54912V5.09122Z" fill="#003B5B"/>
<path d="M29.9089 16.0895C26.7162 15.0015 23.377 15.0006 20.184 16.0867L5.729 20.8059C5.77308 21.2479 5.84238 21.6846 5.9363 22.112H44.1481C44.242 21.6846 44.3113 21.2479 44.3554 20.8059L29.9089 16.0895Z" fill="#003B5B"/>
<path d="M23.6753 7.24396L6.76019 13.8005L5.99264 16.9467C5.87248 17.4392 5.78538 17.9456 5.73242 18.4597L19.7873 13.8712C23.2407 12.6973 26.852 12.6983 30.305 13.8741L44.3514 18.4597C44.2984 17.9457 44.2113 17.4393 44.0912 16.9468L43.3236 13.8005L26.4085 7.24396C25.5123 6.926 24.5715 6.926 23.6753 7.24396Z" fill="#003B5B"/>
<path d="M20.8687 2.58249L19.1995 3.20957V6.60801L20.8687 5.96096V2.58249Z" fill="#003B5B"/>
<path d="M22.5381 5.31392L23.2282 5.04639C23.2336 5.0443 23.2391 5.04227 23.2446 5.04026C24.4231 4.61957 25.6609 4.61957 26.8394 5.04026C26.8449 5.04227 26.8503 5.0443 26.8557 5.04639L27.5459 5.31392V1.95516L26.7018 1.63799C25.6154 1.2298 24.4685 1.2298 23.3822 1.63799L22.5381 1.95516V5.31392Z" fill="#003B5B"/>
<path d="M49.5096 11.1229L47.9899 3.91699C47.8105 3.06638 47.4813 2.28881 47.031 1.6523C46.5808 1.0158 46.0232 0.539765 45.4072 0.265852C44.7911 -0.00806178 44.1353 -0.0715061 43.4971 0.0810701C42.859 0.233646 42.2579 0.597593 41.7465 1.14107C41.6608 1.23218 41.5889 1.34527 41.5349 1.47398L39.4549 6.42995L39.2309 6.34576V9.84315L42.6851 11.1821L41.7348 7.28661L41.117 7.0545L42.8948 2.81854C43.1949 2.54146 43.5387 2.36531 43.8981 2.30451C44.2575 2.2437 44.6224 2.29996 44.9629 2.46868C45.3033 2.6374 45.6097 2.9138 45.8571 3.27529C46.1044 3.63678 46.2856 4.0731 46.386 4.54859L47.9056 11.7545C48.6773 15.3429 48.3799 19.2027 47.0782 22.4929C46.4249 24.1453 45.534 25.6003 44.4588 26.7704L44.4729 26.8363L44.3526 26.8843C43.3253 27.9681 42.1604 28.7832 40.9163 29.2887L41.5607 27.9995L31.8894 31.8626C27.4427 33.8689 22.6417 33.8689 18.1949 31.8626L8.52363 27.9995L9.33402 29.6209L8.85695 29.5309C6.27269 28.3249 4.12779 25.805 2.86781 22.4946C1.60784 19.1842 1.32965 15.3378 2.09104 11.7545L3.61068 4.54849C3.71117 4.07224 3.89282 3.63531 4.14076 3.2735C4.38869 2.9117 4.69585 2.63533 5.03705 2.46704C5.37825 2.29876 5.74378 2.24335 6.10368 2.30536C6.46358 2.36738 6.8076 2.54505 7.10754 2.8238L8.95584 7.05874L8.3495 7.28661L7.39918 11.1821L10.8534 9.84315V6.34576L10.6256 6.43136L8.45459 1.45717C8.40142 1.33538 8.33209 1.22819 8.25017 1.14111C7.73878 0.597636 7.1377 0.233689 6.49953 0.0811125C5.86136 -0.0714637 5.20555 -0.00801936 4.58948 0.265894C3.97341 0.539807 3.41586 1.01584 2.96561 1.65235C2.51535 2.28885 2.18613 3.06642 2.00673 3.91703L0.487086 11.1229C-0.397908 15.2885 -0.0684731 19.7604 1.40634 23.6014C2.88116 27.4425 5.38686 30.3544 8.39826 31.7268C8.44754 31.7494 8.49826 31.7657 8.54975 31.7754L10.6046 32.1632L10.8534 32.6608L22.3428 40.1639C23.1856 40.7143 24.108 41 25.0421 41C25.9763 41 26.8986 40.7143 27.7415 40.1639L39.2309 32.6608L39.5509 32.0205L41.2627 31.5237C41.2835 31.5177 41.3041 31.5105 41.3245 31.5023C42.8443 30.9053 44.2627 29.9032 45.4979 28.5539C46.7331 27.2046 47.7607 25.5347 48.5215 23.6404C49.2823 21.7461 49.7613 19.6649 49.9309 17.5166C50.1005 15.3682 49.9573 13.1953 49.5096 11.1229Z" fill="#003B5B"/>
<path d="M34.223 4.46402L32.5537 3.83679V7.25504L34.223 7.90208V4.46402Z" fill="#003B5B"/>
<path d="M30.8844 3.20958L29.2151 2.58235V5.96098L30.8844 6.60803V3.20958Z" fill="#003B5B"/>
<path d="M35.8923 5.09122V8.54912L37.5616 9.19617V5.71845L35.8923 5.09122Z" fill="#003B5B"/>
</svg>
